<svg version="1.1" id="Layer_1" xmlns="http://www.w3.org/2000/svg" xmlns:xlink="http://www.w3.org/1999/xlink" x="0px" y="0px"
	 width="100%" viewBox="0 0 184 188" enable-background="new 0 0 184 188" xml:space="preserve">
<path fill="#FFFFFF" opacity="1.000000" stroke="none"
	d="
M1.000000,81.000000
	C1.000000,54.000008 1.000000,27.500013 1.000000,1.000014
	C62.333313,1.000010 123.666626,1.000010 184.999954,1.000005
	C184.999969,63.666630 184.999969,126.333260 184.999985,188.999908
	C123.666718,188.999939 62.333435,188.999939 1.000076,188.999969
	C1.000000,153.166672 1.000000,117.333336 1.000000,81.000000
M144.768799,36.393433
	C140.270218,33.132282 135.970078,29.545265 131.239731,26.664698
	C106.861771,11.819588 81.500397,10.620840 55.853245,22.734749
	C43.352379,28.639277 33.477360,37.968555 25.911943,49.782860
	C19.634687,59.585552 15.252690,70.238861 14.201666,81.554268
	C12.410405,100.839134 14.992853,119.582794 26.995705,136.670166
	C29.276398,141.832703 32.402470,146.253586 38.328442,149.081314
	C39.873451,150.589874 41.217056,152.411469 42.996170,153.556168
	C54.510410,160.964401 66.392456,167.107513 80.534424,168.329971
	C99.126617,169.937088 116.628075,167.341736 132.314209,156.909119
	C147.635178,146.719376 158.733536,133.221573 164.558716,115.312988
	C167.873291,105.122879 166.588089,94.958153 166.956818,84.758904
	C167.441956,71.339676 161.815857,59.896324 154.946030,48.198437
	C152.949829,43.335354 150.939453,38.484726 144.768799,36.393433
z"/>
<path fill="#FDFEFE" opacity="1.000000" stroke="none"
	d="
M37.649487,148.813705
	C32.402470,146.253586 29.276398,141.832703 27.247311,136.274902
	C28.427948,135.935242 29.712626,136.410431 30.225872,135.975433
	C32.760082,133.827560 35.128059,131.476913 37.485935,129.128754
	C52.213074,114.462311 66.921860,99.777443 81.839417,84.896477
	C84.304115,87.209717 86.652420,89.413719 89.461273,92.049973
	C92.593399,80.233978 95.493126,69.294731 98.615219,57.516594
	C86.635475,60.808784 75.681183,63.819160 64.726891,66.829544
	C64.465416,67.303963 64.203934,67.778381 63.942451,68.252808
	C67.048843,70.682930 70.155228,73.113060 72.279266,74.774689
	C58.152935,89.149506 44.673950,102.865585 31.248074,116.527618
	C20.054941,90.707420 26.841192,61.844551 48.988323,42.540222
	C59.475521,33.399158 71.922226,28.532618 85.728355,27.455517
	C105.616592,25.903915 122.467415,33.051983 137.352936,47.027622
	C140.169739,43.381409 142.636658,40.188122 145.103577,36.994835
	C150.939453,38.484726 152.949829,43.335354 154.611588,48.467655
	C153.010025,49.455486 151.505371,49.936165 150.511459,50.928436
	C135.780045,65.635674 121.111954,80.406395 106.441132,95.174255
	C104.142326,97.488251 101.903770,99.862091 98.951630,102.918129
	C95.987854,99.324814 93.450882,96.248955 90.255241,92.374519
	C86.962578,104.682739 83.993141,115.782707 80.794197,127.740578
	C92.732224,124.459572 103.755844,121.429878 115.306664,118.255295
	C112.648132,115.440086 110.627136,113.299995 109.263054,111.855522
	C123.387558,97.607353 137.236771,83.636871 150.980484,69.772827
	C160.799133,92.473320 153.099304,123.119713 133.064148,140.225952
	C122.653236,149.114899 110.743248,154.642593 97.079201,155.939896
	C77.447166,157.803833 60.342678,151.812576 45.125134,137.664459
	C42.408802,141.715622 40.029144,145.264664 37.649487,148.813705
z"/>
<path fill="#055393" opacity="1.000000" stroke="none"
	d="
M37.988964,148.947510
	C40.029144,145.264664 42.408802,141.715622 45.125134,137.664459
	C60.342678,151.812576 77.447166,157.803833 97.079201,155.939896
	C110.743248,154.642593 122.653236,149.114899 133.064148,140.225952
	C153.099304,123.119713 160.799133,92.473320 150.980484,69.772827
	C137.236771,83.636871 123.387558,97.607353 109.263054,111.855522
	C110.627136,113.299995 112.648132,115.440086 115.306664,118.255295
	C103.755844,121.429878 92.732224,124.459572 80.794197,127.740578
	C83.993141,115.782707 86.962578,104.682739 90.255241,92.374519
	C93.450882,96.248955 95.987854,99.324814 98.951630,102.918129
	C101.903770,99.862091 104.142326,97.488251 106.441132,95.174255
	C121.111954,80.406395 135.780045,65.635674 150.511459,50.928436
	C151.505371,49.936165 153.010025,49.455486 154.568390,48.840469
	C161.815857,59.896324 167.441956,71.339676 166.956818,84.758904
	C166.588089,94.958153 167.873291,105.122879 164.558716,115.312988
	C158.733536,133.221573 147.635178,146.719376 132.314209,156.909119
	C116.628075,167.341736 99.126617,169.937088 80.534424,168.329971
	C66.392456,167.107513 54.510410,160.964401 42.996170,153.556168
	C41.217056,152.411469 39.873451,150.589874 37.988964,148.947510
z"/>
<path fill="#055393" opacity="1.000000" stroke="none"
	d="
M144.936188,36.694134
	C142.636658,40.188122 140.169739,43.381409 137.352936,47.027622
	C122.467415,33.051983 105.616592,25.903915 85.728355,27.455517
	C71.922226,28.532618 59.475521,33.399158 48.988323,42.540222
	C26.841192,61.844551 20.054941,90.707420 31.248074,116.527618
	C44.673950,102.865585 58.152935,89.149506 72.279266,74.774689
	C70.155228,73.113060 67.048843,70.682930 63.942451,68.252808
	C64.203934,67.778381 64.465416,67.303963 64.726891,66.829544
	C75.681183,63.819160 86.635475,60.808784 98.615219,57.516594
	C95.493126,69.294731 92.593399,80.233978 89.461273,92.049973
	C86.652420,89.413719 84.304115,87.209717 81.839417,84.896477
	C66.921860,99.777443 52.213074,114.462311 37.485935,129.128754
	C35.128059,131.476913 32.760082,133.827560 30.225872,135.975433
	C29.712626,136.410431 28.427948,135.935242 27.136108,135.918091
	C14.992853,119.582794 12.410405,100.839134 14.201666,81.554268
	C15.252690,70.238861 19.634687,59.585552 25.911943,49.782860
	C33.477360,37.968555 43.352379,28.639277 55.853245,22.734749
	C81.500397,10.620840 106.861771,11.819588 131.239731,26.664698
	C135.970078,29.545265 140.270218,33.132282 144.936188,36.694134
z"/>
</svg>
